<svg xmlns:rdf="http://www.w3.org/1999/02/22-rdf-syntax-ns#" xmlns="http://www.w3.org/2000/svg" height="192" width="192" version="1.1" xmlns:cc="http://creativecommons.org/ns#" xmlns:dc="http://purl.org/dc/elements/1.1/" viewBox="0 0 192 192">
 <g>
  <circle stroke-opacity=".15686" cx="96" stroke="#000" cy="96" r="94" stroke-width="3.9991" fill="none"/>
  <g opacity=".85" transform="translate(54.546 22.492)">
   <path d="m83.07 22.555c-1.45-0.0625-2.9242 0.13672-4.3242 0.63672-3.1 1.1-20.6 7.3008-20.6 7.3008-2.8 1-3.6016 2.7988-3.6016 5.2988v103.4c0 1.3 0 1.9012 1 2.7012l54.602 26.6c3.4 1.5 6.5996 1.7988 6.5996-3.2012v-104.7c0-2.2-0.8-2.6008-2.5-3.3008-0.7-0.4-45.8-20-46.9-20.5s-0.49922-1.3984 0.80078-1.8984c2.2-0.8 10.898-3.8016 11.898-4.1016 1.4-0.5 3.2016-0.49922 5.1016 0.30078 4.2 1.8 37.7 16.399 40.6 17.699 3 1.3 3.5 2.1 3.5 4.5v92.201s-0.3 1.6992 1.5 1.6992h5.4004c1.5 0 1.2988-1.5 1.2988-1.5v-95.5c0-3.9-0.0992-4.7996-3.1992-6.0996 0 0-42.9-18.8-47-20.6-1.3-0.55-2.7258-0.875-4.1758-0.9375zm-0.76367 51.514h1.6934 13.543c0.92679 0 1.7806 0.50397 2.2266 1.3164 0.44594 0.81244 0.41334 1.804-0.08398 2.5859l-9.3672 14.719h13.996c0.98757 0 1.8859 0.57328 2.3027 1.4688 0.41669 0.89536 0.27489 1.9495-0.36133 2.7051l-22.25 26.426-4.83 5.74c-0.49558 0.58887-1.2132 0.90234-1.9434 0.90234-0.40033 0-0.80392-0.093-1.1777-0.28906-1.0555-0.55374-1.5832-1.768-1.2695-2.918l4.2031-15.414h-15.297c-0.90769 0-1.7458-0.48502-2.1992-1.2715-0.45314-0.78647-0.45293-1.7553 0.002-2.541l18.621-32.176c0.45379-0.78418 1.2911-1.2656 2.1973-1.2656z" transform="translate(-54.546 -22.492)"/>
  </g>
  <g fill="#ffeb3b" transform="matrix(.10911 0 0 .10911 129.95 1.7936)">
   <path d="m-495.04 1173.4c3.426 1.797 7.131 2.664 10.8 2.664 6.692 0 13.269-2.886 17.811-8.283l44.26-52.557v-451.16h-15.515c-8.304 0-15.981 4.425-20.14 11.612l-170.67 294.79c-4.169 7.201-4.175 16.077-0.022 23.285 4.156 7.208 11.843 11.649 20.162 11.649h140.2l-38.529 141.27c-2.873 10.539 1.969 21.659 11.643 26.734z" fill-opacity=".15686" fill="#000"/>
  </g>
 </g>
 <style>.st0{fill:#FFFFFF;} .st1{fill:#00BDD7;}</style>
</svg>
